<?xml version="1.0" encoding="UTF-8" standalone="no"?>
<!-- Created with Inkscape (http://www.inkscape.org/) -->

<svg
   width="150"
   height="150"
   viewBox="0 0 150 150"
   version="1.1"
   id="svg1"
   xml:space="preserve"
   inkscape:version="1.4 (86a8ad7, 2024-10-11)"
   sodipodi:docname="logo.svg"
   inkscape:export-filename="favicon-16x16.png"
   inkscape:export-xdpi="6.1440001"
   inkscape:export-ydpi="6.1440001"
   xmlns:inkscape="http://www.inkscape.org/namespaces/inkscape"
   xmlns:sodipodi="http://sodipodi.sourceforge.net/DTD/sodipodi-0.dtd"
   xmlns="http://www.w3.org/2000/svg"
   xmlns:svg="http://www.w3.org/2000/svg"><sodipodi:namedview
     id="namedview1"
     pagecolor="#ffffff"
     bordercolor="#000000"
     borderopacity="0.25"
     inkscape:showpageshadow="2"
     inkscape:pageopacity="0.0"
     inkscape:pagecheckerboard="true"
     inkscape:deskcolor="#d1d1d1"
     inkscape:document-units="mm"
     inkscape:zoom="4.0373457"
     inkscape:cx="82.975308"
     inkscape:cy="138.08577"
     inkscape:window-width="2560"
     inkscape:window-height="1351"
     inkscape:window-x="-9"
     inkscape:window-y="-9"
     inkscape:window-maximized="1"
     inkscape:current-layer="layer1" /><defs
     id="defs1" /><g
     inkscape:label="Layer 1"
     inkscape:groupmode="layer"
     id="layer1"><rect
       style="fill:#fefdf7;fill-opacity:1;stroke-width:0.17323"
       id="rect1"
       width="150"
       height="150"
       x="0"
       y="0"
       ry="37.77985" /><g
       id="g1"
       transform="matrix(0.75489217,0,0,0.75489217,-39.786584,-31.809873)"><path
         style="fill:#ffaf28;fill-opacity:1"
         d="m 148.22098,227.87418 c -3.58244,-1.47569 -5.11161,-1.90511 -13.28928,-3.73188 -7.81693,-1.74619 -10.07178,-2.27506 -21.16667,-4.9646 -3.27421,-0.79371 -9.04875,-2.18592 -12.83229,-3.09381 -3.783538,-0.90788 -7.093893,-1.76277 -7.356342,-1.89976 -0.262448,-0.13699 -0.708487,-0.62843 -0.991198,-1.09208 -0.482919,-0.792 -0.51408,-1.4001 -0.515009,-10.05042 -0.0011,-10.21049 0.01861,-10.34098 1.680988,-11.12983 1.115253,-0.52922 1.949162,-0.53775 4.006565,-0.041 2.769306,0.66868 2.513546,1.26886 2.513546,-5.89833 v -6.3005 l 0.81121,-0.7771 c 1.00537,-0.9631 1.6777,-0.9615 8.05233,0.0192 10.67739,1.64259 17.65443,3.72351 25.69561,7.66379 6.11076,2.99435 9.85974,5.62208 14.08887,9.87519 2.49287,2.50699 3.59872,3.45603 3.74718,3.21581 0.11585,-0.18743 1.38189,-1.52172 2.81344,-2.96509 5.30208,-5.34585 11.48421,-9.26963 19.84919,-12.59819 6.53557,-2.60062 12.56962,-4.10718 21.9417,-5.47833 4.58351,-0.67057 4.83329,-0.68164 5.73425,-0.2541 1.6347,0.77572 1.77663,1.42148 1.77663,8.08373 v 5.87785 l 0.59531,-0.15636 c 0.32742,-0.086 1.42875,-0.29474 2.44739,-0.46388 2.25451,-0.37433 3.52051,0.0325 4.3643,1.40249 0.51982,0.84399 0.53686,1.21411 0.46882,10.18339 -0.0683,8.99617 -0.0893,9.33254 -0.6282,10.05398 -0.30667,0.41053 -0.96152,0.88791 -1.45521,1.06083 -0.87291,0.30575 -7.14356,1.83706 -18.757,4.58051 -22.58032,5.33415 -32.97655,7.93481 -35.78439,8.95162 -3.17692,1.15047 -4.88002,1.13452 -7.81174,-0.0731 z m 1.79197,-10.55858 c 0,-5.75683 -0.11293,-6.44725 -1.35296,-8.2719 -0.92153,-1.35599 -1.96826,-1.86028 -5.21665,-2.51325 -1.40718,-0.28286 -10.05945,-2.00619 -19.22726,-3.82962 -9.16782,-1.82343 -18.83955,-3.78454 -21.49275,-4.35804 -2.65319,-0.57349 -4.947339,-1.04271 -5.098101,-1.04271 -0.183272,0 -0.250576,2.03863 -0.203091,6.15156 l 0.07102,6.15157 4.762502,1.15308 c 2.61937,0.6342 10.29891,2.50419 17.06562,4.15553 6.76672,1.65135 15.04157,3.61394 18.38854,4.36131 3.34698,0.74738 7.39511,1.80924 8.99584,2.3597 1.60073,0.55046 2.99971,1.01577 3.10885,1.03404 0.10914,0.0183 0.19844,-2.3898 0.19844,-5.35127 z m 7.55275,4.46636 c 1.02532,-0.33664 3.50809,-0.98798 5.51727,-1.44743 2.00918,-0.45945 7.42107,-1.77323 12.02641,-2.91951 4.60535,-1.14628 11.70711,-2.8717 15.78169,-3.83427 11.40283,-2.69379 14.75332,-3.51694 15.54427,-3.81893 l 0.72761,-0.27781 v -5.94406 c 0,-3.26923 -0.0987,-6.00504 -0.21927,-6.07957 -0.1206,-0.0745 -2.88881,0.43795 -6.15157,1.13885 -3.26276,0.7009 -7.00385,1.47717 -8.31354,1.72505 -1.30969,0.24788 -5.59594,1.09365 -9.525,1.87949 -3.92906,0.78584 -11.12822,2.21279 -15.99814,3.17099 -6.08551,1.19739 -9.12952,1.91224 -9.73421,2.28596 -0.4839,0.29906 -1.23104,1.15613 -1.66031,1.90458 l -0.7805,1.36082 -0.002,5.91529 c -0.002,5.52685 0.0279,5.90338 0.46054,5.73395 0.25466,-0.0997 1.30192,-0.45676 2.32723,-0.7934 z m -11.52005,-20.77568 c -0.76242,-1.07071 -4.52381,-4.24582 -7.06031,-5.95981 -5.98451,-4.04394 -14.52721,-7.49897 -23.55249,-9.52562 -3.01657,-0.67737 -7.8212,-1.43632 -9.1484,-1.44509 l -0.73371,-0.005 0.0722,4.68572 0.0722,4.68573 18.65313,3.75504 c 10.25922,2.06527 19.3675,3.9321 20.24062,4.14851 0.87313,0.2164 1.68491,0.40665 1.80396,0.42277 0.11904,0.0161 -0.0372,-0.32696 -0.3473,-0.76241 z m 23.92977,-1.74502 c 6.11934,-1.23662 15.23373,-3.05248 20.25419,-4.03523 l 9.12813,-1.78683 0.0728,-4.47599 c 0.04,-2.46179 0.0218,-4.60896 -0.0406,-4.77147 -0.13272,-0.34586 -4.91871,0.25335 -9.53465,1.19375 -10.4151,2.12186 -21.01728,6.86804 -27.78032,12.43617 -2.3114,1.90302 -4.45882,4.12469 -3.74122,3.87059 0.28358,-0.10042 5.52233,-1.19436 11.64166,-2.43099 z"
         id="path1"
         sodipodi:nodetypes="sssssssscscscsssssssscssssssssssssssssscssssssccsssscssssssssccscccssccccssscssscccssss" /><path
         d="m 173.52403,169.27842 c -0.53864,-0.43548 -0.64284,-0.80187 -0.75692,-2.66154 l -0.13229,-2.15654 -1.79654,-0.60332 c -0.9881,-0.33183 -1.8617,-0.49791 -1.94133,-0.36907 -0.0796,0.12884 -0.74039,0.70506 -1.46836,1.28049 -2.13956,1.69123 -2.67175,1.56063 -5.70991,-1.40117 -2.98853,-2.91341 -3.432,-3.72111 -2.83282,-5.15937 0.22734,-0.54571 0.82547,-1.41518 1.32919,-1.93217 l 0.91584,-0.93999 -0.7075,-1.6397 -0.70749,-1.63971 h -1.52389 c -1.25341,0 -1.66836,-0.12157 -2.33793,-0.68497 l -0.81405,-0.68498 v -3.92359 c 0,-2.15798 0.074,-4.11633 0.16436,-4.35189 0.26691,-0.69557 1.56147,-1.20248 3.07092,-1.20248 h 1.40947 l 0.75688,-1.73736 0.75687,-1.73736 -0.94966,-0.97462 c -1.27868,-1.31227 -1.85119,-2.70903 -1.49472,-3.64662 0.33404,-0.87861 4.08034,-4.77512 5.10259,-5.30718 1.07044,-0.55715 2.11612,-0.2345 3.64725,1.12537 0.72162,0.6409 1.46121,1.16527 1.64353,1.16527 0.18232,0 1.04154,-0.27448 1.90939,-0.60996 l 1.57791,-0.60997 0.13229,-2.14166 c 0.2,-3.23771 0.22381,-3.25299 5.06809,-3.25299 3.57497,0 3.97528,0.0475 4.45691,0.52916 0.3679,0.3679 0.52917,0.88195 0.52917,1.68672 0,0.63666 0.0744,1.5294 0.16527,1.98388 l 0.16526,0.82632 5.83076,-5.6219 c 3.20692,-3.09204 7.38855,-7.12477 9.29252,-8.96162 l 3.46177,-3.33972 -0.46568,-0.97653 c -1.40244,-2.94096 -1.21604,-7.32792 0.44929,-10.573758 l 0.95696,-1.865182 -8.56695,-8.566955 -8.56696,-8.566956 -1.03039,0.638224 c -5.03883,3.121052 -11.01459,3.012976 -15.85447,-0.28674 -2.52261,-1.719855 -4.09363,-3.675361 -4.09363,-5.095481 0,-1.404555 1.34817,-2.874046 2.63677,-2.874046 1.15431,0 1.76066,0.367637 3.46272,2.09947 1.77805,1.809144 2.99787,2.425054 5.14406,2.597329 2.54406,0.204214 4.38672,-0.448809 6.09954,-2.161626 2.20744,-2.207442 2.81701,-5.195973 1.67979,-8.235475 -1.11231,-2.972916 -3.46111,-4.618448 -6.59228,-4.618448 -2.46314,0 -3.98566,0.596835 -5.79443,2.271436 -1.87268,1.733771 -2.68339,2.084986 -3.89202,1.686102 -1.96993,-0.650137 -2.49932,-2.591206 -1.19702,-4.388984 4.62466,-6.384159 14.29433,-7.228014 19.83841,-1.731263 2.92918,2.904182 4.1297,6.321771 3.97378,11.312393 l -0.0916,2.931975 9.43618,9.311431 9.43618,9.31143 1.14715,-0.264543 c 6.22513,-1.435564 12.7406,2.149067 14.80328,8.144347 2.55061,7.41346 -1.95528,15.12486 -9.61576,16.4565 l -1.78047,0.30951 -4.55835,6.52223 c -2.5071,3.58722 -6.15476,8.78086 -8.10593,11.54142 -1.95116,2.76056 -3.60603,5.17158 -3.6775,5.35782 -0.0941,0.24519 0.20967,0.33861 1.10102,0.33861 0.95417,0 1.37699,0.14603 1.88039,0.64943 0.63319,0.63319 0.64943,0.75116 0.64943,4.71638 0,3.96526 -0.0161,4.08206 -0.64324,4.67124 -0.4855,0.4561 -1.0609,0.63782 -2.34641,0.74101 l -1.70318,0.13671 -0.63015,1.48037 c -0.34658,0.81421 -0.66021,1.5442 -0.69695,1.62221 -0.0367,0.078 0.23138,0.46341 0.59582,0.85645 1.17655,1.26886 1.98453,2.64485 1.98453,3.37967 0,0.93924 -1.06475,2.36835 -3.40251,4.56684 -1.67865,1.57865 -2.01955,1.78594 -2.93705,1.78594 -0.86522,0 -1.28531,-0.21644 -2.52398,-1.30037 l -1.48601,-1.30037 -1.63824,0.53885 c -0.90104,0.29637 -1.78708,0.7257 -1.96898,0.95407 -0.19076,0.23948 -0.33073,1.1695 -0.33073,2.19752 0,1.61032 -0.0673,1.83522 -0.69714,2.33068 -0.62853,0.4944 -1.05529,0.54837 -4.33631,0.54837 -3.18656,0 -3.71686,-0.0628 -4.2638,-0.505 z m 6.73619,-11.53228 c 0.83538,-0.21759 2.01252,-0.64746 2.61586,-0.95526 1.41743,-0.72312 3.726,-2.91155 4.54059,-4.30428 2.21383,-3.78508 1.91989,-8.93619 -0.71385,-12.50969 -1.32785,-1.80164 -2.50611,-2.7584 -4.61299,-3.74583 -1.36012,-0.63744 -1.82077,-0.7112 -4.44165,-0.7112 -2.84698,0 -2.97723,0.0262 -4.9366,0.99461 -9.55531,4.72249 -8.10662,18.43232 2.2422,21.21938 1.82698,0.49203 3.4501,0.49578 5.30644,0.0123 z m -4.51733,-6.04226 c -1.02838,-0.37303 -2.31588,-1.53769 -2.8573,-2.58469 -1.63256,-3.15701 0.47298,-7.18523 3.96119,-7.5784 0.64842,-0.0731 1.6102,-0.052 2.1373,0.0469 1.05878,0.19863 2.85899,1.67153 3.45745,2.82884 0.44568,0.86185 0.50077,3.3163 0.0983,4.38142 -0.9318,2.46621 -4.18035,3.85506 -6.79698,2.90592 z m 40.4161,-41.51786 c 4.485,-2.69315 3.71836,-9.68727 -1.25644,-11.462604 -4.84752,-1.729908 -9.64843,3.231974 -7.89128,8.155854 0.92526,2.59274 3.22648,4.15939 6.11651,4.16407 1.33676,0.002 1.8342,-0.13853 3.03121,-0.85732 z"
         style="fill:#143d56;fill-opacity:1"
         id="path1-5" /><path
         d="m 128.97858,171.19954 c -3.34367,-0.69501 -5.91552,-1.75906 -9.02369,-3.73334 l -2.08881,-1.3268 -3.70417,-0.13702 c -7.41558,-0.27432 -12.87418,-2.45758 -17.49982,-6.99937 -4.216237,-4.13979 -6.864226,-9.23795 -7.868161,-15.14851 -0.289201,-1.70265 -0.33951,-1.78261 -2.016393,-3.20483 -3.377565,-2.86463 -5.889568,-6.81921 -7.302472,-11.4961 -0.638492,-2.11349 -0.716351,-2.80099 -0.732267,-6.46598 -0.02158,-4.9699 0.338198,-6.66534 2.224313,-10.48195 l 1.322808,-2.67674 -0.405841,-1.68889 c -2.176012,-9.05534 1.36315,-19.433112 8.5679,-25.123375 3.13131,-2.473089 3.204725,-2.547189 3.204725,-3.234628 0,-0.87806 1.16557,-4.389412 2.019205,-6.082984 3.92925,-7.795441 11.852723,-13.053652 20.848453,-13.83555 1.95928,-0.170298 2.18963,-0.257084 3.48679,-1.313632 1.85798,-1.513345 4.77342,-2.910956 7.49383,-3.592404 2.87438,-0.720019 7.40891,-0.60363 10.09164,0.259025 3.74053,1.202803 7.0299,4.061911 8.71888,7.578419 1.95346,4.067181 1.84537,1.130199 1.84537,50.138539 0,49.05578 0.11155,46.05697 -1.86882,50.23867 -1.89418,3.99971 -5.54285,6.98523 -9.89458,8.09623 -1.45516,0.3715 -6.0544,0.51485 -7.41889,0.23122 z m 7.84147,-6.25235 c 1.74591,-0.85419 3.75485,-2.89703 4.49547,-4.57132 1.18005,-2.66769 1.27965,-4.02613 1.2845,-17.51918 l 0.005,-12.77153 -2.35193,-2.57431 c -1.29355,-1.41587 -2.77667,-2.97961 -3.29582,-3.47499 l -0.9439,-0.90068 -11.05782,0.16177 c -7.73373,0.11315 -11.37597,0.26182 -12.11616,0.49458 -0.76382,0.24019 -1.92346,1.17581 -4.16718,3.36217 -2.58118,2.51519 -3.10886,3.16182 -3.10886,3.80967 0,0.42916 -0.26335,1.24887 -0.58523,1.82158 -1.41443,2.51663 -4.67492,2.98193 -6.942713,0.99078 -2.222345,-1.95125 -1.814145,-5.73786 0.7497,-6.95448 0.497801,-0.23622 1.305943,-0.4295 1.795873,-0.4295 0.77887,0 1.23797,-0.34837 3.65425,-2.7729 l 2.76346,-2.7729 -4.951,-4.99481 -4.951005,-4.99481 v -1.22395 c 0,-0.97849 0.154829,-1.39723 0.772047,-2.08801 0.658689,-0.73721 0.949709,-0.86407 1.982065,-0.86407 h 1.210023 l 5.6247,5.5892 5.62471,5.58921 9.35482,-0.16525 9.35483,-0.16525 -3.93087,-4.12235 c -2.16198,-2.26729 -7.50274,-7.85082 -11.86837,-12.40785 C 104.979,90.307354 105.03418,90.372151 105.03418,89.037442 c 0,-0.856337 0.17502,-1.238207 0.89959,-1.96277 1.35686,-1.356859 3.28935,-1.122538 4.61224,0.559249 0.5576,0.708867 7.52709,8.107223 10.83879,11.50575 l 1.93368,1.984379 -0.087,-3.571879 c -0.095,-3.899918 -0.26825,-4.475768 -1.93387,-6.428226 -1.2868,-1.508409 -2.45615,-3.879189 -3.04074,-6.164885 -0.70793,-2.767979 -0.74011,-8.158301 -0.0538,-9.005609 0.94155,-1.16237 2.18539,-1.438301 3.47572,-0.771048 1.00029,0.517274 1.27785,1.382204 1.44737,4.510394 0.28994,5.350257 2.39732,9.428514 5.74993,11.127409 0.68271,0.345955 1.49116,0.946669 1.79656,1.334919 1.09588,1.393194 0.43038,3.84242 -1.28512,4.729537 l -0.80545,0.416515 v 4.842683 4.84269 l 3.88793,4.0802 c 2.13837,2.24412 5.29624,5.54557 7.01751,7.33656 l 3.12957,3.25634 -0.0722,-27.068844 -0.0722,-27.068842 -0.60467,-1.495567 c -1.3591,-3.361527 -3.70098,-5.234531 -7.47439,-5.977934 -4.19852,-0.827154 -8.39285,0.401158 -11.76668,3.445884 l -1.5855,1.430849 -2.91042,0.178171 c -3.47483,0.212724 -5.60625,0.680873 -7.961,1.748568 -6.12,2.774939 -10.574796,8.70023 -11.370634,15.123992 -0.23118,1.86601 -0.596727,2.394167 -2.352204,3.398549 -4.492777,2.570506 -7.683507,6.768192 -9.055353,11.913112 -0.706729,2.65049 -0.630341,7.422742 0.167286,10.451042 0.34496,1.30969 0.613864,2.6095 0.597564,2.88846 -0.0163,0.27897 -0.396845,1.01854 -0.845654,1.6435 -3.678887,5.12276 -4.208028,12.59049 -1.313474,18.53699 1.234481,2.53608 3.007184,4.57628 5.797722,6.67256 l 1.994081,1.49797 0.190943,1.84276 c 0.46838,4.52024 1.33042,7.20638 3.293139,10.26153 2.938514,4.57406 7.115494,7.56873 12.258624,8.78879 1.41536,0.33575 3.16035,0.47901 6.08542,0.49961 l 4.10104,0.0289 2.11667,1.55499 c 3.89876,2.8642 6.83379,3.88831 10.85123,3.78627 2.27021,-0.0577 2.86155,-0.17121 4.13399,-0.79376 z m -28.16576,-13.0096 c -1.95773,-0.69822 -2.82676,-1.98776 -2.82676,-4.19461 0,-2.40168 1.72382,-4.15331 4.08736,-4.15331 1.00876,0 1.24262,-0.18859 5.57752,-4.49792 3.98492,-3.96141 4.6267,-4.49791 5.38051,-4.49791 1.04106,0 2.30454,0.61819 2.67385,1.30826 0.14984,0.27997 0.27243,1.01537 0.27243,1.63422 0,1.10362 -0.0888,1.21445 -4.63021,5.7814 -2.81655,2.83236 -4.63191,4.85983 -4.63456,5.17605 -0.009,1.05134 -1.15954,2.62193 -2.3679,3.23184 -1.34441,0.67857 -2.09727,0.72375 -3.53224,0.21198 z"
         style="fill:#143c55;fill-opacity:1"
         id="path1-1" /></g></g></svg>
